<svg width="512" height="512" viewBox="0 0 512 512" fill="none" xmlns="http://www.w3.org/2000/svg">
  <defs>
    <linearGradient id="bg" x1="64" y1="48" x2="448" y2="464" gradientUnits="userSpaceOnUse">
      <stop stop-color="#7C3AED"/>
      <stop offset="1" stop-color="#5B21B6"/>
    </linearGradient>
    <linearGradient id="coin" x1="348" y1="108" x2="420" y2="180" gradientUnits="userSpaceOnUse">
      <stop stop-color="#F8D35E"/>
      <stop offset="1" stop-color="#EAAA08"/>
    </linearGradient>
  </defs>
  <rect x="42" y="42" width="428" height="428" rx="120" fill="url(#bg)"/>
  <path d="M170 136C170 125.507 178.507 117 189 117H230.5C240.993 117 249.5 125.507 249.5 136V329.5H350C360.493 329.5 369 338.007 369 348.5V376C369 386.493 360.493 395 350 395H189C178.507 395 170 386.493 170 376V136Z" fill="white"/>
  <circle cx="384" cy="144" r="46" fill="url(#coin)"/>
  <path d="M388.386 116.5C397.971 117.703 405.55 123.971 407.51 132.748H396.773C395.371 129.326 392.066 127.094 387.524 127.094C382.661 127.094 379.498 129.27 379.498 132.435C379.498 135.232 381.674 136.748 387.354 137.951L391.725 138.923C402.69 141.355 408.171 145.84 408.171 153.809C408.171 162.661 400.429 168.596 389.464 169.257V177H382.321V169.172C371.469 168.085 364.241 161.752 362.94 152.957H373.678C374.995 156.493 378.698 158.868 383.958 158.868C389.179 158.868 392.681 156.805 392.681 153.582C392.681 150.9 390.391 149.469 384.74 148.237L380.34 147.294C370.091 145.061 364.122 139.608 364.122 131.696C364.122 123.301 371.384 117.423 382.321 116.648V109H389.464V116.5H388.386Z" fill="#7C4A00"/>
</svg>
