<svg width="512" height="512" viewBox="0 0 512 512" fill="none" xmlns="http://www.w3.org/2000/svg">
  <defs>
    <linearGradient id="bg" x1="56" y1="40" x2="456" y2="472" gradientUnits="userSpaceOnUse">
      <stop stop-color="#7C3AED"/>
      <stop offset="1" stop-color="#5B21B6"/>
    </linearGradient>
    <linearGradient id="coin" x1="336" y1="120" x2="408" y2="192" gradientUnits="userSpaceOnUse">
      <stop stop-color="#F8D35E"/>
      <stop offset="1" stop-color="#EAAA08"/>
    </linearGradient>
  </defs>
  <rect width="512" height="512" rx="144" fill="url(#bg)"/>
  <path d="M157 122C157 108.193 168.193 97 182 97H236C249.807 97 261 108.193 261 122V336H354C367.807 336 379 347.193 379 361V390C379 403.807 367.807 415 354 415H182C168.193 415 157 403.807 157 390V122Z" fill="white"/>
  <circle cx="372" cy="156" r="46" fill="url(#coin)"/>
  <path d="M376.386 128.5C385.971 129.703 393.55 135.971 395.51 144.748H384.773C383.371 141.326 380.066 139.094 375.524 139.094C370.661 139.094 367.498 141.27 367.498 144.435C367.498 147.232 369.674 148.748 375.354 149.951L379.725 150.923C390.69 153.355 396.171 157.84 396.171 165.809C396.171 174.661 388.429 180.596 377.464 181.257V189H370.321V181.172C359.469 180.085 352.241 173.752 350.94 164.957H361.678C362.995 168.493 366.698 170.868 371.958 170.868C377.179 170.868 380.681 168.805 380.681 165.582C380.681 162.9 378.391 161.469 372.74 160.237L368.34 159.294C358.091 157.061 352.122 151.608 352.122 143.696C352.122 135.301 359.384 129.423 370.321 128.648V121H377.464V128.5H376.386Z" fill="#7C4A00"/>
</svg>
